<?xml version="1.0" encoding="utf-8"?>
<!-- Generator: Adobe Illustrator 25.2.3, SVG Export Plug-In . SVG Version: 6.00 Build 0)  -->
<svg version="1.1" id="Layer_1" xmlns="http://www.w3.org/2000/svg" xmlns:xlink="http://www.w3.org/1999/xlink" x="0px" y="0px"
	 viewBox="0 0 899.7 537.2" style="enable-background:new 0 0 899.7 537.2;" xml:space="preserve">
<style type="text/css">
	.st0{fill:#8928BC;}
</style>
<g>
	<path class="st0" d="M683.8,87.2c10.5,4,17.6,11,20.3,21.9c0.8,3.2,1.3,6.6,1.4,9.9c0.1,15.3,0,30.7,0.1,46c0,4.3-1.5,7.6-4.9,10.4
		c-8.4,6.8-25.6,19.1-29.1,19.1c-10.7-0.1-24.3,0-35-0.1c-8-0.1-10.8-2.9-10.8-10.9c-0.1-10.2,0-15.3,0-25.5c0-1.5,0.1-3-0.3-4.5
		c-0.6-2.2-3.7-4.4-6.3-3.9c-2.4,0.4-1.1,2.8-1.2,4.2c-0.3,21.4-0.2,18.7-6.2,22.7c-7,5-27.3,17.1-30.9,17c-10.5-0.1-21,0-31.5,0
		c-8-0.1-10.8-2.8-10.8-10.9c0-46.1,0-86.3-0.1-132.4c0-4.5,1.4-7.9,5-10.8c7.9-6.4,13.6-13,21.2-19.7c3.3-2.9,6.9-4.3,11.3-4.2
		c23.3,0.1,46.6,0,70,0c6.2,0,12.3,0.5,18.3,1.8c14.9,3.2,24.2,13.1,26.3,28.2c1.1,8.1,1,16.3,0.3,24.4
		C690.4,76.2,688.4,82,683.8,87.2z M677.2,88.1c7.2-3.7,10-9.6,10.8-16.5c1.1-8.8,1.4-17.6-0.2-26.4c-2.5-14.3-10.9-22.8-24.9-25.8
		c-4.7-1-9.6-1.4-14.4-1.4c-24.3,0-48.7,0-73,0c-6.8,0-8.7,1.9-8.7,8.6c0,45.8,0,91.6,0,137.5c0,7,1.9,8.9,8.9,8.9
		c9.8,0.1,19.7,0,29.5,0c8.4,0,10-1.5,10-9.8c0-12,0.2-24-0.1-36c-0.1-3.6,1.1-4.5,4.5-4.4c7.8,0.2,15.7,0.1,23.5,0.1
		c9.2,0,10.9,1.8,11,11.2c0.1,10.3-0.1,20.7,0.1,31c0.1,6,1.9,7.8,7.8,7.9c10.7,0.1,21.3,0.1,32,0c7.1-0.1,8.6-1.8,8.6-9.1
		c0-13.8,0-27.7,0-41.5C702.7,102.7,696.7,94.3,677.2,88.1z"/>
	<path class="st0" d="M520.8,135.3c0,10-0.1,20,0,30c0,4.1-1.4,7.2-4.7,9.9c-8.6,6.9-25.7,19.2-29,19.2c-10.7,0-23.3,0.1-34-0.1
		c-7.5-0.1-10.5-3.2-10.6-10.7c-0.1-7.8,0-11.7,0-19.5c0-2.1-2.8-2.8-5.9-2.8c-3.3,0-2.9,2-2.8,3.9c0.2,4.4-1.6,7.5-5,10.2
		c-8.4,6.8-23.7,18.9-26.6,18.9c-11,0-23,0.1-34,0c-5.8-0.1-9.2-2.7-9.2-8.4c0.1-24.3-1.8-56.9,2.7-81c2.8-15.4,4.1-16.3,9.4-31
		c3-8.3,6.4-16.4,9.4-24.6c1.4-3.7,3.4-6.8,6.4-9.3c8.5-7,16.9-14.1,25.3-21.1c3.1-2.6,6.7-3.6,10.6-3.6c19,0,38,0,57,0
		c7.9,0,11.2,2.3,14,9.5c6.6,17.2,13.2,34.4,19.8,51.5c5.1,13.2,8.1,26.7,7.3,40.9C520.6,123.3,520.8,129.3,520.8,135.3z
		 M384.5,134.6c0,9.5,0,19,0,28.5c0,8.7,1.3,10,10.2,10.1c9.2,0.1,18.3,0,27.5,0c7.3,0,9-1.7,9.1-9.2c0.1-8.2,0.2-16.3-0.1-24.5
		c-0.1-3.6,1.1-4.4,4.5-4.4c9.8,0.2,19.7,0.3,29.5,0c4.2-0.1,4.9,1.4,4.8,5.1c-0.3,7.8-0.1,15.7-0.1,23.5c0,7.5,1.8,9.4,9.5,9.5
		c9.7,0.1,19.3,0.1,29,0.1c8.4,0,10-1.6,10-9.9c0-17.8,0-35.7,0-53.5c0-5.5-0.7-11-2.2-16.3c-6.8-23.8-17-46.4-25.6-69.6
		c-1.4-3.8-4.6-5.7-8.6-5.7c-20.3,0-40.6-0.1-61,0c-4.7,0-7.8,2.5-9.4,6.9c-1.5,4-3.1,8-4.7,12.1c-5.3,14-10.4,28-16.1,41.8
		C383.4,97,384.2,115.8,384.5,134.6z"/>
	<path class="st0" d="M140.9,83.1c15.1,4.3,21.2,14.7,22.3,28.7c0.9,11.5,1.1,22.9-0.3,34.4c-1.1,8.5-5.8,18.6-12.3,24.1
		c-2.8,2.3-5.5,4.7-8.2,7.1c-12.2,10.7-27.8,16.5-44,16.6c-25.7,0.1-85.1,2-87.2-1.8c-2.3-2.6-4.2-1.5-4.1-12.5
		C7.5,135.3,7.2,90.9,7,46.4C7,40,20,25.2,27.2,18.9c2.8-2.4,5.9-3.6,9.5-3.6c23.8,0,47.6,0,71.5,0.1c6.3,0,12.6,0.9,18.7,2.8
		c12.2,3.8,19.5,11.9,21.4,24.4c1.2,8.6,1.1,17.3,0.1,25.9C147.8,74,145.4,78.7,140.9,83.1z M133.6,84.5
		c9.1-4.7,12.2-11.9,12.6-20.5c0.3-6.1,0.5-12.3-0.3-18.5c-1.7-13.8-8.4-21.6-21.8-25.3c-6.3-1.8-12.8-2.2-19.3-2.2
		c-22.1,0-44.3,0-66.4,0c-8.5,0-9.7,1.3-9.7,9.9c0,45,0,89.9,0,134.9c0,8.9,1.4,10.3,10.5,10.3c25.6,0,51.3,0,76.9,0
		c4.8,0,9.7-0.3,14.4-0.8c19.7-2.1,30.1-13.8,30.1-33.6c0-7.5,0-15,0-22.5C160.6,97.6,152.9,88.2,133.6,84.5z"/>
	<path class="st0" d="M720.6,119.1c0-22.7,0.1-45.3-0.1-68c0-5.3,1.5-9.1,5.7-12.5c7.8-6.2,13.3-12.8,20.9-19.3
		c3.2-2.7,6.7-4,10.9-4c24,0.1,48,0,72,0c8.7,0,17.3,0.8,25.6,3.3c17.9,5.4,28.5,18.2,29,36.9c0.6,26.6,0.5,53.3,0,79.9
		c-0.3,12.5-5.6,23.1-15.8,31c-7.1,5.5-30.1,27.3-45.3,27.6c-26.3,0.4-66.6,0.2-93,0.2c-7,0-9.9-3.1-9.9-10.3
		C720.5,160.7,720.6,142.4,720.6,119.1z M748.9,95.9c0,22.5,0,45,0,67.4c0,8.2,1.7,9.8,10,9.9c22.1,0,44.3,0,66.4,0
		c8,0,16-0.4,23.8-1.9c20.3-4,31.1-15.9,32.6-36.5c0.6-7.6,0.4-15.3,0.4-23c-0.2-19.3,0.9-38.6-0.6-57.9
		c-1.2-16-10.9-27.6-26.2-32.3c-8.3-2.6-16.9-3.4-25.6-3.4c-23.5,0-47,0-70.4,0c-9.1,0-10.5,1.3-10.5,10.3
		C748.9,50.9,748.9,73.4,748.9,95.9z"/>
	<path class="st0" d="M340.7,95.6c0,12.5,0,25,0,37.5c0,8.4-0.7,14.3-3,20.8c-4.7,13.6-12.9,27-25.9,33
		c-28.7,13.1-52.4,12.4-90.4,6.8c-16.2-4.1-30.1-12.7-34.3-23.4c-2.3-6.6-4.3-13.6-4.3-20.6c-0.1-22.3,1-44.6,1-67
		c0-15.1,21.7-48.7,28.6-54.8C221.8,19.6,233,15.6,245,14c21.2-2.9,42.5-3.1,63.5,2.2c1.9,0.5,3.8,1.2,5.7,1.8
		c17.7,6.5,26.1,18.1,26.5,37C340.9,68.6,340.7,82.1,340.7,95.6L340.7,95.6z M337.8,96c0.1,0,0.1,0,0.2,0c0-12.8,0-25.6,0-38.5
		c0-0.8-0.1-1.7-0.1-2.5c-1.1-18.4-8.9-28.7-26.2-34.8c-15.2-5.3-31-5.6-46.9-5.2c-12.5,0.3-24.9,1.5-36.7,6.3
		c-15.5,6.3-23.4,17.6-23.5,34.2c-0.1,26.8-0.1,53.6,0,80.4c0.1,16.3,7.7,27.4,22.7,33.7c9.5,3.9,19.5,5.6,29.6,6.2
		c19,1.1,38,1.1,56.2-5.5c15.4-5.5,24-16.4,24.5-32.9C338.2,123.6,337.8,109.8,337.8,96z"/>
	<path class="st0" d="M615.3,69.6c0.5-3.8-2.1-9.9,1-12.5c2.6-2.2,8.6-0.8,13-0.7c9.5,0,12.1,2.6,12.3,12.2c0,0.8,0,1.7,0,2.5
		c-0.1,11.2-2.3,13.5-13.3,13.5c-4.1,0-9.6,1.3-12-0.8c-2.9-2.5-0.7-8.1-1-12.3C615.3,71,615.3,70.7,615.3,69.6z"/>
	<path class="st0" d="M467.9,96.3c-11,0-21.4-0.1-31.9,0c-2.6,0-2.6-1-1.9-3c3.1-9.8,6.1-19.6,9.1-29.3c0.9-2.9,2.4-4.9,6-4.8
		c3.3,0.1,6.9-0.5,8.3,3.7C461,73.9,464.4,84.9,467.9,96.3z"/>
	<path class="st0" d="M92.8,136.6c-5.3-0.1-12.3,2.6-15.3-0.7c-2.6-2.9-0.8-9.8-0.8-15c0-9.9,0-9.9,9.7-9.9c6.5,0,13,0.2,19.5,0.2
		c4.7,0,7.2,2.4,7.6,6.8c0.3,3.8,0.4,7.7,0,11.5c-0.4,4.5-2.7,7.4-7.8,7.2C101.4,136.4,97.1,136.6,92.8,136.6z"/>
	<path class="st0" d="M88,54.3c0.5,0,1,0,1.5,0c15.6-1,14.7,3.9,14.1,17.4c-0.2,4-3.2,6.2-7.1,6.4c-5.8,0.3-11.6,0.1-17.5,0.3
		c-2.2,0.1-2.3-1.1-2.3-2.8c0-6,0.2-12,0-18c-0.1-2.7,0.8-3.5,3.4-3.3C82.6,54.5,85.3,54.3,88,54.3z"/>
	<path class="st0" d="M797.6,95.9c0-11.2,0.1-22.3-0.1-33.4c0-2.7,0.6-3.8,3.6-3.8c7.5,0.2,15-0.1,22.5,0.1
		c7.4,0.2,10.2,3.1,10.2,10.5c0.1,17.6,0.1,35.3,0,52.9c0,7.3-3,10.2-10.4,10.4c-7.3,0.1-14.6-0.1-22,0.1c-3,0.1-4-0.7-3.9-3.9
		C797.7,117.9,797.6,106.9,797.6,95.9z M800.2,85.8c0,14.3,0,27.6,0,40.8c0,1.3-0.7,3.5,1.6,3.5c2.7,0,1.7-2.4,1.7-3.8
		c0.1-10.8,0.1-21.6,0-32.4C803.5,91.2,803.4,88.6,800.2,85.8z"/>
	<path class="st0" d="M289.7,95.6c0,9.3,0,18.7,0,28c0,6.7-2.6,9.7-9.2,10.9c-6.3,1.1-12.6,1.1-18.9-0.1c-5.6-1-8.6-4.2-8.7-9.9
		c-0.1-19.2-0.1-38.3,0-57.5c0-5.4,3-8.6,8.3-9.7c6.8-1.4,13.6-1.4,20.3,0c5.4,1.1,8,4.2,8.1,9.8C289.8,76.6,289.7,86.1,289.7,95.6z
		 M255.7,84.3c0,14.3-0.1,28,0.1,41.7c0,1.8,0.8,3.9,3.6,3.9c0-13.2,0-26.1,0-39.1C259.4,88.4,259,85.9,255.7,84.3z"/>
</g>
<g>
	<path class="st0" d="M201.9,400.3c0,28.5-0.1,57,0.1,85.5c0,6.4-2.1,11-7.2,14.9c-10.4,8.1-14.1,15.6-27.4,19.1
		c-6.7,1.5-31.8,0.9-45.5,0.8c-9.5-0.1-14,0.5-14-9c-0.1-17,0.7-50.2,0.8-51.2c0.1-1.6-9.1-0.2-11-0.2c-2,0-2,1.2-2,2.6
		c0,8,0,16,0,24c0,5.3-1.7,9.5-6.1,12.9c-10.7,8.5-11.5,8.9-21.9,17.7c-2.8,2.3-12.3,4.2-16,4.2c-14.8,0-19.6,0.1-34.4,0
		c-6.5-0.1-10.1-3.7-10.6-10.2c-0.1-1.5-0.1-3-0.1-4.5c0-56.8,0.1-114.6-0.1-171.4c0.1-7,3.1-9,23.3-30.9c3.3-2.9,6.9-4.4,11.3-4.4
		c14,0.1,28,0.1,42,0.2c9.1,0.1,12.5,3.5,12.6,12.8c0.1,16.5,0,33,0,49.5c0,1,0,2,0,3c-0.1,1.6,0.1,2.9,2.3,2.8
		c2.1-0.1,1.9-1.4,1.9-2.8c0-7.3,0.1-14.7,0-22c-0.1-5.7,1.8-10.1,6.4-13.9c10.3-8.4,20.5-17,30.5-25.7c3.2-2.8,6.8-4,10.9-4
		c13.8,0.1,27.7,0,41.5,0c9.3,0.1,12.6,3.4,12.7,12.7C201.9,342,201.9,371.1,201.9,400.3z M198.7,400.3c0-29,0-58,0-87
		c0-7.8-2.2-10-10.1-10c-13.2,0-26.3,0-39.5,0c-9,0-11.1,2.1-11.1,11.2c0,17.5-0.1,35,0.1,52.5c0,3.4-0.7,4.5-4.3,4.5
		c-12-0.2-24-0.3-36,0c-4,0.1-5.3-0.8-5.3-5.1c0.3-17.7,0.2-35.3,0.1-53c0-7.8-2.5-10.1-10.2-10.1c-13.5,0-27,0-40.5,0
		c-7.8,0-10.1,2.2-10.1,10.1c0,57.8,0,115.6,0,173.5c0,7.7,2.3,10.1,10.2,10.2c13,0.1,26,0.1,39,0.1c9.2,0,11.6-2.3,11.6-11.5
		c0-18.2,0.1-36.3-0.1-54.5c0-3,0.7-4,3.8-3.9c12.2,0.2,24.3,0.3,36.5,0c4-0.1,5.3,0.8,5.3,5.1c-0.3,18.2-0.2,36.3-0.1,54.5
		c0,7.7,2.6,10.3,10.2,10.3c13.3,0.1,26.7,0.1,40,0c8.5-0.1,10.6-2.3,10.6-10.8C198.7,457.6,198.7,429,198.7,400.3z"/>
	<path class="st0" d="M366.7,443.3c12.5,0,23.6,0,34.7,0s14.3,3.2,14.3,14.2c0,10.2,0,20.3,0,30.5c0,4.5-1.6,8-5,10.9
		c-10.9,9-35.1,23.4-38.7,23.7c-41.6,0-74.3,0-115.9,0c-9.3,0-11.6-2.4-11.6-11.8c0-58.1-1-110.3-1.1-168.4
		c0-5.3,13.7-29.8,23.9-38.5c3-2.5,6.2-3.8,10-3.8c42.5,0,84.9,0,127.4,0.1c7,0,10.8,3.8,10.9,10.9c0.2,11.5,0.1,23,0.1,34.5
		c0,3.9-1.5,7.1-4.6,9.6c-6.2,5.1-12.3,10.2-18.5,15.2c-2,1.6-4.1,2.9-0.9,5.6c1.9,1.7,2.1,4.5,2.1,7c0,10.5,0,21,0,31.5
		c0,4.3-1.7,7.6-5.1,10.3C381.6,430.5,374.7,436.5,366.7,443.3z M268.5,400.3c0,28.8,0,57.6,0,86.5c0,7.8,2.3,10.3,10.1,10.3
		c41.3,0.1,82.6,0.1,124,0.1c7.6,0,10.1-2.7,10.1-10.4c0.1-9.3,0-18.7,0-28c0-10.3-2-12.3-12.3-12.3c-22.3,0-44.7-0.1-67,0.1
		c-3.7,0-5.4-0.6-5-4.8c0.4-4.6,0.3-9.3,0-14c-0.3-3.9,0.9-5.1,4.9-5c16.2,0.2,32.3,0.1,48.5-0.1c6.6-0.1,8.9-2.5,8.9-9.3
		c0.1-9.2,0-18.3,0-27.5c0-8.7-2.1-10.8-11-10.8c-15.5,0-31-0.1-46.5,0.1c-3.6,0-5.2-0.7-4.9-4.6c0.3-4,0.3-8,0-12
		c-0.3-3.9,1-5.1,5-5c22.8,0.2,45.7,0.1,68.5,0.1c8.7,0,10.8-2.2,10.8-11c0-9.3,0-18.7,0-28c0-9.2-2.1-11.3-11.1-11.3
		c-40.7,0-81.3,0-122,0c-9.3,0-11.1,1.8-11.1,11C268.4,343,268.5,371.7,268.5,400.3z"/>
	<path class="st0" d="M622.7,389.7c18.5,7.2,26.9,20.6,27.1,39.5c0.2,19.3,0,38.7,0.1,58c0,5.2-1.8,9.2-5.9,12.5
		c-10.5,8.4-15,9.9-25.3,18.7c-3.4,2.9-12.9,2.4-17.3,2.3c-13.3-0.1-26.7,0-40-0.1c-5.7-0.3-4.6-3.4-4.7-13.5
		c-0.2-13.7-0.1-18.3,0-32c0-2.6,1.1-10-1-11.8c-1.1-0.9-13.7-1.4-15-1c-1.5,0.5-1,7-1,8.1c-0.1,5.7,0,11.3,0,17
		c0,4.9-0.8,8.8-4.9,12.1c-10.8,8.7-12.3,10.6-22.9,19.5c-2.8,2.3-5.8,3.6-9.5,3.6c-14.7,0-24.3,0.1-39,0c-6.2,0-9.5-3.2-10.5-9.2
		c-0.3-2.1-0.3-4.3-0.3-6.5c0-56.2,0.1-108.3-0.1-164.5c0-6.9,12.6-29.4,22.1-37.6c3.6-3.1,7.4-4.6,12.2-4.6
		c32.3,0.2,64.7,0.1,97,0.2c4.3,0,8.7,0.6,12.9,1.4c21.3,4.3,32.8,17.1,35.1,38.9c1,9.8,0.9,19.6-0.2,29.4
		C630.8,377.3,628.2,383.9,622.7,389.7z M613.9,391.1c9.4-4.3,13.1-11.4,14.2-19.9c1.6-11.6,2-23.3-0.3-34.8
		c-3.3-17-13.3-27.8-30.7-31.3c-5.4-1.1-10.8-1.9-16.3-1.9c-31.3,0-62.6,0-94,0c-7.7,0-10.1,2.4-10.1,10.2c0,57.7,0,115.3,0,173
		c0,8.2,2.6,10.7,10.9,10.7c12.7,0.1,25.3,0,38,0c9.5,0,11.8-2.2,11.8-11.8c0-15.7,0.1-31.3-0.1-47c0-3.2,0.8-4.2,4.1-4.2
		c10.5,0.2,21,0.1,31.5,0.1c10.1,0,12.8,2.6,12.8,12.7c0,13.3,0,26.7,0,40c0,7.2,2.6,10.1,9.4,10.1c14.2,0.1,28.3,0.1,42.5-0.1
		c6.2-0.1,8.9-2.8,8.9-8.9c0.1-20.3,0.3-40.7-0.1-61c-0.2-12.5-5.2-22.9-16-30C625.9,394,620.7,392.4,613.9,391.1z"/>
	<path class="st0" d="M548.9,386.3c-3.1-0.3-8.2,1.7-10.7-0.7c-2.5-2.4-0.7-7.5-0.8-11.5c-0.1-6.5,0.1-13-0.1-19.4
		c-0.1-2.5,0.6-3.5,3.3-3.4c6.1,0.2,12.3,0,18.4,0.1c6.4,0.2,10,3.4,10.5,9.7c0.4,4.9,0.4,10,0.1,14.9c-0.4,6.8-4.1,10.1-11,10.3
		C555.7,386.4,552.7,386.3,548.9,386.3z"/>
	<path class="st0" d="M884.6,400.2c0,16,0,32.1,0,48.1c0,12-2.1,21.9-7,32.1c-5.5,11.5-13.9,21.4-24.7,28.2c-4.5,2.8-9.1,5-15.4,7.5
		c-14.8,5.8-34.5,6.4-49,6.6c-23.2,0.4-53.8-3.3-65.1-6.2c-14.2-3.6-25.6-14.5-32.4-27.8c-4.3-8.4-6.3-17.9-6.2-27.3
		c0.1-25.9,1.2-67.8,1.3-93.7c0-19.4,25.3-46.5,34.1-54.2c12-10.6,26.3-15.6,41.7-17.7c27.3-3.7,54.5-4,81.4,2.9
		c2.5,0.6,4.9,1.5,7.3,2.4c22.7,8.3,33.5,23.2,34,47.4C884.8,365.6,884.6,382.9,884.6,400.2L884.6,400.2z M880.9,400.8
		c0.1,0,0.2,0,0.3,0c0-16.5,0-32.9,0-49.4c0-1.1-0.1-2.1-0.2-3.2c-1.4-23.6-11.4-36.9-33.6-44.7c-19.5-6.8-39.8-7.2-60.1-6.7
		c-16.1,0.4-31.9,2-47,8.1c-19.9,8.1-30.1,22.5-30.1,43.9c-0.1,34.4-0.1,67.8,0,102.2c0.1,20.9,9.8,35.2,29.2,43.2
		c12.2,5,25,7.2,38,8c24.4,1.4,48.7,1.4,72.2-7c19.8-7.1,30.8-21.1,31.4-42.2C881.3,435.2,880.9,418.5,880.9,400.8z"/>
	<path class="st0" d="M821.2,397.7c0,12.7,0.1,25.4,0,38.1c0,9.2-3.6,13.2-12.5,14.8c-8.6,1.5-17.1,1.5-25.7-0.1
		c-7.6-1.4-11.8-5.7-11.8-13.4c-0.2-26.1-0.2-52.1,0-78.2c0-7.4,4-11.7,11.3-13.2c9.2-1.9,18.5-1.9,27.7,0c7.4,1.5,10.9,5.7,11,13.3
		C821.3,371.9,821.2,384.8,821.2,397.7z M774.9,382.4c0,19.4-0.1,38.1,0.1,56.7c0,2.5,1.1,5.3,4.9,5.3c0-17.9,0-35.6,0-53.2
		C779.9,387.9,779.4,384.6,774.9,382.4z"/>
</g>
</svg>
