<?xml version="1.0" encoding="utf-8"?>
<!-- Generator: Adobe Illustrator 25.2.3, SVG Export Plug-In . SVG Version: 6.00 Build 0)  -->
<svg version="1.1" id="Layer_1" xmlns="http://www.w3.org/2000/svg" xmlns:xlink="http://www.w3.org/1999/xlink" x="0px" y="0px"
	 viewBox="0 0 454.7 277.2" style="enable-background:new 0 0 454.7 277.2;" xml:space="preserve">
<style type="text/css">
	.st0{fill:#FAFAFA;}
</style>
<g>
	<g>
		<path class="st0" d="M344.7,46.3c5.3,2,8.8,5.5,10.2,11c0.4,1.6,0.7,3.3,0.7,4.9c0.1,7.7,0,15.4,0,23.1c0,2.1-0.8,3.8-2.5,5.2
			c-4.2,3.4-12.8,9.6-14.6,9.6c-5.4,0-13.2,0-18.6,0c-4,0-5.4-1.5-5.4-5.5c0-5.1,0-7.7,0-12.8c0-0.8,0.1-1.5-0.1-2.2
			c-0.3-1.1-0.9-2.2-2.2-2c-1.2,0.2-0.6,1.4-0.6,2.1c-0.2,10.7-0.1,9.4-3.1,11.4c-3.5,2.5-13.7,8.6-15.5,8.5c-5.3,0-11.5,0-16.8,0
			c-4,0-5.4-1.4-5.4-5.5c0-23.2,0-43.3,0-66.5c0-2.3,0.7-3.9,2.5-5.4c4-3.2,7.8-6.5,11.7-9.9c1.7-1.4,3.5-2.1,5.7-2.1
			c11.7,0,23.4,0,35.1,0c3.1,0,6.2,0.2,9.2,0.9c7.5,1.6,12.2,6.6,13.2,14.2c0.6,4.1,0.5,8.2,0.2,12.3C348,40.8,347,43.7,344.7,46.3z
			 M341.4,46.8c3.6-1.9,5-4.8,5.4-8.3c0.5-4.4,0.7-8.8-0.1-13.2c-1.3-7.2-5.5-11.5-12.5-12.9c-2.4-0.5-4.8-0.7-7.2-0.7
			c-12.2,0-24.4,0-36.6,0c-3.4,0-4.4,0.9-4.4,4.3c0,23,0,46,0,69c0,3.5,1,4.5,4.5,4.5c4.9,0,9.9,0,14.8,0c4.2,0,5-0.8,5-4.9
			c0-6,0.1-12,0-18.1c0-1.8,0.5-2.2,2.3-2.2c3.9,0.1,7.9,0,11.8,0c4.6,0,5.5,0.9,5.5,5.6c0,5.2,0,10.4,0,15.6c0,3,1,3.9,3.9,4
			c5.4,0.1,10.7,0.1,16.1,0c3.6,0,4.3-0.9,4.3-4.6c0-6.9,0-13.9,0-20.8C354.2,54.1,351.2,49.9,341.4,46.8z"/>
		<path class="st0" d="M262.9,70.5c0,5,0,10,0,15c0,2.1-0.7,3.6-2.4,5c-4.3,3.4-12.9,9.6-14.6,9.6c-5.4,0-13.2,0-18.6,0
			c-3.8,0-5.3-1.6-5.3-5.4c0-3.9,0-5.3,0-9.3c0-1,0.1-1.9-1.5-1.9c-1.7,0-1.4,1-1.4,2c0.1,2.2-0.8,3.8-2.5,5.1
			c-4.2,3.4-11.9,9.5-13.4,9.5c-5.5,0-11.5,0.1-17.1,0c-2.9,0-4.6-1.4-4.6-4.2c0-12.2-1.3-21.9,0.9-34c1.4-7.7,2.5-14.8,5.2-22.2
			c1.5-4.1,3.2-8.2,4.7-12.4c0.7-1.9,1.7-3.4,3.2-4.7c4.2-3.5,8.5-7.1,12.7-10.6c1.6-1.3,3.3-1.8,5.3-1.8c9.5,0,19.1,0,28.6,0
			c4,0,5.6,1.1,7,4.8c3.3,8.6,6.6,17.2,9.9,25.9c2.6,6.6,4.1,13.4,3.7,20.6C262.8,64.5,262.9,67.5,262.9,70.5z M194.5,70.1
			c0,4.8,0,9.5,0,14.3c0,4.4,0.7,5,5.1,5.1c4.6,0,9.2,0,13.8,0c3.7,0,4.5-0.9,4.6-4.6c0-4.1,0.1-8.2,0-12.3
			c-0.1-1.8,0.6-2.2,2.3-2.2c4.9,0.1,9.9,0.2,14.8,0c2.1-0.1,2.5,0.7,2.4,2.6c-0.1,3.9-0.1,7.9,0,11.8c0,3.8,0.9,4.7,4.7,4.8
			c4.8,0.1,9.7,0,14.5,0c4.2,0,5-0.8,5-4.9c0-8.9,0-17.9,0-26.8c0-2.8-0.3-5.5-1.1-8.2c-3.4-12-8.6-23.3-12.8-34.9
			c-0.7-1.9-2.3-2.9-4.3-2.9c-10.2,0-20.4,0-30.6,0c-2.4,0-3.9,1.2-4.7,3.4c-0.7,2-1.6,4-2.3,6.1c-2.7,7-5.2,14.1-8.1,21
			C193.9,51.2,194.3,60.7,194.5,70.1z"/>
		<path class="st0" d="M72.2,44.3c7.6,2.1,10.6,7.4,11.2,14.4c0.4,5.8,0.6,11.5-0.2,17.3c-0.5,4.2-2.4,7.8-5.7,10.5
			c-4.5,3.8-7,6.3-14.5,10.1c-4.9,2-39.8,0.6-55,0.5c-0.7,0-1.3-0.5-1.5-1.1C6.2,94.8,6,93.3,6,92.8c0-22.3,0-44.6,0-67
			c0-3.2,5.5-10.6,9.2-13.8c1.4-1.2,3-1.8,4.8-1.8c12,0,23.9,0,35.9,0.1c3.2,0,6.3,0.5,9.4,1.4c6.1,1.9,9.8,6,10.7,12.3
			c0.6,4.3,0.5,8.7,0.1,13C75.7,39.7,74.5,42.1,72.2,44.3z M68.6,45c4.6-2.4,6.1-6,6.3-10.3c0.2-3.1,0.2-6.2-0.1-9.3
			c-0.8-6.9-4.2-10.8-11-12.7c-3.2-0.9-6.4-1.1-9.7-1.1c-11.1,0-22.2,0-33.3,0c-4.3,0-4.9,0.6-4.9,5c0,22.6,0,45.1,0,67.7
			c0,4.5,0.7,5.1,5.3,5.1c12.9,0,25.7,0,38.6,0c2.4,0,4.8-0.2,7.2-0.4c9.9-1.1,15.1-6.9,15.1-16.9c0-3.8,0-7.5,0-11.3
			C82.1,51.5,78.3,46.9,68.6,45z"/>
		<path class="st0" d="M362.1,62.3c0-11.4,0.1-22.7,0-34.1c0-2.6,0.7-4.6,2.9-6.3c3.9-3.1,7.7-6.4,11.5-9.7c1.6-1.4,3.4-2,5.5-2
			c12,0,24.1,0,36.1,0c4.4,0,8.7,0.4,12.9,1.7c9,2.7,14.3,9.1,14.5,18.5c0.3,13.4,0.3,26.8,0,40.1c-0.1,6.3-2.8,11.6-7.9,15.6
			c-3.6,2.8-15.1,13.7-22.7,13.8c-13.2,0.2-34.4,0.1-47.7,0.1c-3.5,0-5-1.5-5-5.1C362.1,83.2,362.1,74,362.1,62.3z M377.4,50.7
			c0,11.3,0,22.6,0,33.9c0,4.1,0.8,4.9,5,4.9c11.1,0,22.2,0,33.3,0c4,0,8-0.2,12-1c10.2-2,15.6-8,16.4-18.3
			c0.3-3.8,0.2-7.7,0.2-11.5c-0.1-9.7,0.4-19.4-0.3-29.1c-0.6-8.1-5.5-13.9-13.2-16.2c-4.2-1.3-8.5-1.7-12.9-1.7
			c-11.8,0-23.6,0-35.4,0c-4.6,0-5.3,0.7-5.3,5.2C377.4,28.1,377.4,39.4,377.4,50.7z"/>
		<path class="st0" d="M172.5,50.5c0,6.3,0,12.5,0,18.8c0,7.2-1,10.7-5.1,18.2c-2.5,4-12.5,12.5-25.6,13c-5.6,0.2-20.7,0.8-30.1-1.6
			c-8.1-2.1-12.3-2.6-15.3-11c-1.2-3.3-2.1-6.8-2.2-10.3c0-11.2,0.5-22.4,0.5-33.6c0-7.6,9.9-24.4,13.3-27.5
			c4.7-4.1,10.3-6.1,16.3-6.9c10.7-1.4,21.3-1.6,31.8,1.1c1,0.2,1.9,0.6,2.9,0.9c8.9,3.3,13.1,9.1,13.3,18.6
			C172.6,37,172.5,43.8,172.5,50.5C172.5,50.5,172.5,50.5,172.5,50.5z M171,50.7c0,0,0.1,0,0.1,0c0-6.4,0-12.9,0-19.3
			c0-0.4,0-0.8-0.1-1.3c-0.6-9.2-4.5-14.4-13.2-17.5c-7.6-2.7-15.6-2.8-23.5-2.6c-6.3,0.1-12.5,0.8-18.4,3.2
			c-7.8,3.2-11.8,8.8-11.8,17.2c0,13.5,0,26.9,0,40.4c0,8.2,3.8,13.8,11.4,16.9c4.8,2,9.8,2.8,14.9,3.1c9.5,0.6,19.1,0.5,28.2-2.7
			c7.7-2.8,12-8.3,12.3-16.5C171.2,64.6,171,57.7,171,50.7z"/>
		<path class="st0" d="M310.3,37.5c0.2-1.9-1-5,0.5-6.3c1.3-1.1,4.3-0.4,6.5-0.4c4.8,0,6.1,1.3,6.2,6.1c0,0.4,0,0.8,0,1.3
			c0,5.6-1.1,6.8-6.7,6.8c-2.1,0-4.8,0.7-6-0.4c-1.4-1.2-0.3-4.1-0.5-6.2C310.3,38.2,310.3,38.1,310.3,37.5z"/>
		<path class="st0" d="M236.3,50.9c-5.5,0-10.8,0-16,0c-1.3,0-1.3-0.5-1-1.5c1.6-4.9,3.1-9.8,4.6-14.7c0.5-1.5,1.2-2.5,3-2.4
			c1.7,0.1,3.5-0.3,4.1,1.8C232.9,39.7,234.6,45.2,236.3,50.9z"/>
		<path class="st0" d="M48,71.1c-2.6-0.1-6.2,1.3-7.7-0.4c-1.3-1.5-0.4-4.9-0.4-7.5c0-5,0-5,4.9-5c3.3,0,6.5,0.1,9.8,0.1
			c2.4,0,3.6,1.2,3.8,3.4c0.2,1.9,0.2,3.9,0,5.8c-0.2,2.3-1.4,3.7-3.9,3.6C52.4,71.1,50.2,71.1,48,71.1z"/>
		<path class="st0" d="M45.6,29.8c0.3,0,0.5,0,0.8,0c7.8-0.5,7.4,2,7.1,8.7c-0.1,2-1.6,3.1-3.6,3.2c-2.9,0.1-5.8,0.1-8.8,0.1
			c-1.1,0-1.2-0.6-1.2-1.4c0-3,0.1-6,0-9c0-1.3,0.4-1.8,1.7-1.7C43,29.9,44.3,29.8,45.6,29.8z"/>
		<path class="st0" d="M401.8,50.7c0-5.6,0-11.2,0-16.8c0-1.4,0.3-1.9,1.8-1.9c3.8,0.1,7.5,0,11.3,0.1c3.7,0.1,5.1,1.5,5.1,5.3
			c0,8.9,0,17.7,0,26.6c0,3.7-1.5,5.1-5.2,5.2c-3.7,0.1-7.4-0.1-11,0.1c-1.5,0-2-0.4-2-1.9C401.9,61.7,401.8,56.2,401.8,50.7z
			 M403.1,45.6c0,7.2,0,13.8,0,20.5c0,0.7-0.4,1.7,0.8,1.7c1.4,0,0.9-1.2,0.9-1.9c0-5.4,0-10.8,0-16.2
			C404.8,48.4,404.7,47,403.1,45.6z"/>
		<path class="st0" d="M146.9,50.5c0,4.7,0,9.4,0,14c0,3.4-1.3,4.9-4.6,5.5c-3.2,0.6-6.3,0.5-9.5,0c-2.8-0.5-4.3-2.1-4.4-5
			c-0.1-9.6-0.1-19.2,0-28.8c0-2.7,1.5-4.3,4.2-4.9c3.4-0.7,6.8-0.7,10.2,0c2.7,0.6,4,2.1,4.1,4.9C146.9,41,146.9,45.8,146.9,50.5z
			 M129.8,44.9c0,7.2,0,14,0,20.9c0,0.9,0.4,2,1.8,2c0-6.6,0-13.1,0-19.6C131.7,46.9,131.5,45.7,129.8,44.9z"/>
	</g>
	<g>
		<path class="st0" d="M105.8,203.5c0,14.3-0.1,28.6,0,42.9c0,3.2-1.1,5.5-3.6,7.5c-5.2,4.1-7.1,7.8-13.7,9.6
			c-3.4,0.8-16,0.4-22.8,0.4c-4.8,0-7,0.2-7-4.5c-0.1-8.5,0.4-25.2,0.4-25.7c0-0.8-4.6-0.1-5.5-0.1c-1,0-1,0.6-1,1.3c0,4,0,8,0,12
			c0,2.7-0.9,4.7-3,6.5c-5.4,4.3-5.8,4.5-11,8.9c-1.4,1.2-6.2,2.1-8,2.1c-7.4,0-9.9,0.1-17.3,0c-3.3,0-5.1-1.9-5.3-5.1
			c-0.1-0.7,0-1.5,0-2.3c0-28.5,0-57.5,0-86c0.1-3.5,1.6-4.5,11.7-15.5c1.7-1.4,3.5-2.2,5.7-2.2c7,0.1,14,0,21.1,0.1
			c4.6,0.1,6.3,1.8,6.3,6.4c0.1,8.3,0,16.6,0,24.8c0,0.5,0,1,0,1.5c0,0.8,0,1.5,1.2,1.4c1-0.1,0.9-0.7,0.9-1.4c0-3.7,0.1-7.4,0-11
			c-0.1-2.9,0.9-5.1,3.2-7c5.2-4.2,10.3-8.5,15.3-12.9c1.6-1.4,3.4-2,5.5-2c6.9,0,13.9,0,20.8,0c4.7,0,6.3,1.7,6.4,6.4
			C105.8,174.2,105.8,188.8,105.8,203.5z M104.2,203.5c0-14.6,0-29.1,0-43.7c0-3.9-1.1-5-5.1-5c-6.6,0-13.2,0-19.8,0
			c-4.5,0-5.6,1.1-5.6,5.6c0,8.8-0.1,17.6,0,26.3c0,1.7-0.4,2.3-2.2,2.2c-6-0.1-12-0.1-18.1,0c-2,0-2.7-0.4-2.6-2.6
			c0.1-8.9,0.1-17.7,0-26.6c0-3.9-1.3-5.1-5.1-5.1c-6.8,0-13.5,0-20.3,0c-3.9,0-5,1.1-5,5.1c0,29,0,58,0,87.1c0,3.9,1.1,5.1,5.1,5.1
			c6.5,0.1,13,0.1,19.6,0c4.6,0,5.8-1.2,5.8-5.8c0-9.1,0-18.2,0-27.4c0-1.5,0.3-2,1.9-2c6.1,0.1,12.2,0.1,18.3,0
			c2,0,2.7,0.4,2.6,2.5c-0.1,9.1-0.1,18.2,0,27.3c0,3.9,1.3,5.2,5.1,5.2c6.7,0,13.4,0,20.1,0c4.3,0,5.3-1.2,5.3-5.4
			C104.2,232.3,104.2,217.9,104.2,203.5z"/>
		<path class="st0" d="M188.5,225.1c6.3,0,11.9,0,17.4,0c5.6,0,7.2,1.6,7.2,7.1c0,5.1,0,10.2,0,15.3c0,2.2-0.8,4-2.5,5.5
			c-5.5,4.5-17.6,11.7-19.4,11.9c-20.9,0-37.3,0-58.2,0c-4.7,0-5.8-1.2-5.8-5.9c0-29.2-0.5-55.3-0.5-84.5c0-2.6,6.9-14.9,12-19.3
			c1.5-1.3,3.1-1.9,5-1.9c21.3,0,42.6,0,64,0c3.5,0,5.4,1.9,5.5,5.5c0.1,5.8,0,11.5,0,17.3c0,2-0.8,3.5-2.3,4.8
			c-3.1,2.5-6.2,5.1-9.3,7.7c-1,0.8-2.1,1.4-0.5,2.8c1,0.8,1,2.2,1,3.5c0,5.3,0,10.5,0,15.8c0,2.1-0.9,3.8-2.6,5.2
			C196,218.6,192.6,221.7,188.5,225.1z M139.2,203.5c0,14.5,0,28.9,0,43.4c0,3.9,1.2,5.2,5.1,5.2c20.7,0,41.5,0,62.2,0
			c3.8,0,5-1.4,5.1-5.2c0-4.7,0-9.4,0-14c0-5.2-1-6.2-6.2-6.2c-11.2,0-22.4,0-33.6,0c-1.9,0-2.7-0.3-2.5-2.4c0.2-2.3,0.2-4.7,0-7
			c-0.1-2,0.5-2.5,2.5-2.5c8.1,0.1,16.2,0,24.3-0.1c3.3,0,4.4-1.3,4.5-4.6c0-4.6,0-9.2,0-13.8c0-4.4-1-5.4-5.5-5.4
			c-7.8,0-15.6-0.1-23.3,0c-1.8,0-2.6-0.3-2.4-2.3c0.2-2,0.2-4,0-6c-0.2-2,0.5-2.5,2.5-2.5c11.5,0.1,22.9,0.1,34.4,0
			c4.4,0,5.4-1.1,5.4-5.5c0-4.7,0-9.4,0-14c0-4.6-1-5.7-5.5-5.7c-20.4,0-40.8,0-61.2,0c-4.7,0-5.6,0.9-5.6,5.5
			C139.2,174.7,139.2,189.1,139.2,203.5z"/>
		<path class="st0" d="M317,198.1c9.3,3.6,13.5,10.4,13.6,19.8c0.1,9.7,0,19.4,0,29.1c0,2.6-0.9,4.6-3,6.3c-5.3,4.2-7.5,5-12.7,9.4
			c-1.7,1.4-6.5,1.2-8.7,1.2c-6.7,0-13.4,0-20.1,0c-2.9-0.1-2.3-1.7-2.4-6.8c-0.1-6.9,0-9.2,0-16.1c0-1.3,0.6-5-0.5-5.9
			c-0.5-0.4-6.9-0.7-7.5-0.5c-0.8,0.2-0.5,3.5-0.5,4c0,2.8,0,5.7,0,8.5c0,2.5-0.4,4.4-2.4,6.1c-5.4,4.3-6.2,5.3-11.5,9.8
			c-1.4,1.2-2.9,1.8-4.8,1.8c-7.4,0-12.2,0.1-19.6,0c-3.1,0-4.8-1.6-5.3-4.6c-0.2-1.1-0.2-2.2-0.2-3.3c0-28.2,0-54.4,0-82.6
			c0-3.4,6.3-14.8,11.1-18.9c1.8-1.5,3.7-2.3,6.1-2.3c16.2,0.1,32.5,0,48.7,0.1c2.2,0,4.3,0.3,6.5,0.7c10.7,2.1,16.5,8.6,17.6,19.5
			c0.5,4.9,0.5,9.9-0.1,14.8C321.1,192,319.8,195.3,317,198.1z M312.6,198.9c4.7-2.2,6.6-5.7,7.1-10c0.8-5.8,1-11.7-0.1-17.5
			c-1.6-8.5-6.7-14-15.4-15.7c-2.7-0.5-5.4-0.9-8.2-0.9c-15.7,0-31.4,0-47.2,0c-3.8,0-5.1,1.2-5.1,5.1c0,28.9,0,57.9,0,86.8
			c0,4.1,1.3,5.3,5.5,5.4c6.4,0,12.7,0,19.1,0c4.8,0,5.9-1.1,5.9-5.9c0-7.9,0-15.7,0-23.6c0-1.6,0.4-2.1,2.1-2.1
			c5.3,0.1,10.5,0,15.8,0c5.1,0,6.4,1.3,6.4,6.4c0,6.7,0,13.4,0,20.1c0,3.6,1.3,5.1,4.7,5.1c7.1,0.1,14.2,0,21.3,0
			c3.1,0,4.5-1.4,4.5-4.5c0-10.2,0.1-20.4,0-30.6c-0.1-6.3-2.6-11.5-8-15.1C318.7,200.3,316,199.5,312.6,198.9z"/>
		<path class="st0" d="M280,196.5c-1.6-0.2-4.1,0.8-5.4-0.4c-1.2-1.2-0.3-3.8-0.4-5.8c-0.1-3.3,0-6.5,0-9.8c0-1.3,0.3-1.8,1.7-1.7
			c3.1,0.1,6.2,0,9.3,0.1c3.2,0.1,5,1.7,5.3,4.9c0.2,2.5,0.2,5,0,7.5c-0.2,3.4-2.1,5.1-5.5,5.2C283.4,196.5,281.9,196.5,280,196.5z"
			/>
		<path class="st0" d="M448.5,203.4c0,8,0,16.1,0,24.1c0,9.2-2.7,16.9-10.4,22.7c-5.6,4.2-8.7,7.7-14.1,12.1
			c-5.6,4.5-41.3,6.3-53.4,3.3c-10.4-2.6-15.8-3.3-19.6-14.2c-1.5-4.3-2.8-8.8-2.8-13.3c0-14.4,0.6-28.8,0.6-43.1
			c0-9.7,12.7-31.4,17.1-35.3c6-5.3,13.2-7.8,20.9-8.9c13.7-1.9,27.4-2,40.9,1.4c1.2,0.3,2.5,0.7,3.7,1.2
			c11.4,4.2,16.8,11.6,17.1,23.8C448.6,186.1,448.5,194.7,448.5,203.4C448.5,203.4,448.5,203.4,448.5,203.4z M446.6,203.7
			c0,0,0.1,0,0.1,0c0-8.3,0-16.5,0-24.8c0-0.5,0-1.1-0.1-1.6c-0.7-11.8-5.7-18.5-16.9-22.4c-9.8-3.4-20-3.6-30.2-3.4
			c-8.1,0.2-16,1-23.6,4.1c-10,4.1-15.1,11.3-15.1,22c-0.1,17.3-0.1,34.5,0,51.8c0,10.5,4.9,17.7,14.6,21.7c6.1,2.5,12.5,3.6,19.1,4
			c12.2,0.7,24.4,0.7,36.2-3.5c9.9-3.6,15.4-10.6,15.8-21.2C446.8,221.5,446.6,212.6,446.6,203.7z"/>
		<path class="st0" d="M413.7,206.7c0,6.4,0,12.7,0,19.1c0,4.6-1.8,6.6-6.3,7.4c-4.3,0.8-8.6,0.7-12.9-0.1c-3.8-0.7-5.9-2.9-5.9-6.7
			c-0.1-13.1-0.1-26.2,0-39.2c0-3.7,2-5.9,5.7-6.6c4.6-0.9,9.3-0.9,13.9,0c3.7,0.8,5.5,2.9,5.5,6.7
			C413.7,193.7,413.7,200.2,413.7,206.7z M390.4,199c0,9.7,0,19.1,0.1,28.5c0,1.2,0.5,2.7,2.5,2.7c0-9,0-17.9,0-26.7
			C392.9,201.8,392.7,200.1,390.4,199z"/>
	</g>
</g>
</svg>
