<?xml version="1.0" encoding="utf-8"?>
<!-- Generator: Adobe Illustrator 25.2.3, SVG Export Plug-In . SVG Version: 6.00 Build 0)  -->
<svg version="1.1" id="Layer_1" xmlns="http://www.w3.org/2000/svg" xmlns:xlink="http://www.w3.org/1999/xlink" x="0px" y="0px"
	 viewBox="0 0 16 16" style="enable-background:new 0 0 16 16;" xml:space="preserve">
<style type="text/css">
	.st0{fill:#8929BB;}
</style>
<rect x="5" y="5" class="st0" width="1" height="1"/>
<rect x="5" y="4" class="st0" width="1" height="1"/>
<rect x="5" y="6" class="st0" width="1" height="1"/>
<rect x="5" y="7" class="st0" width="1" height="1"/>
<rect x="5" y="8" class="st0" width="1" height="1"/>
<rect x="5" y="9" class="st0" width="1" height="1"/>
<rect x="5" y="10" class="st0" width="1" height="1"/>
<rect x="5" y="11" class="st0" width="1" height="1"/>
<rect x="5" y="12" class="st0" width="1" height="1"/>
<rect x="6" y="13" class="st0" width="1" height="1"/>
<rect x="6" y="14" class="st0" width="1" height="1"/>
<rect x="7" y="15" class="st0" width="1" height="1"/>
<rect x="8" y="15" class="st0" width="1" height="1"/>
<rect x="9" y="15" class="st0" width="1" height="1"/>
<rect x="10" y="14" class="st0" width="1" height="1"/>
<rect x="10" y="13" class="st0" width="1" height="1"/>
<rect x="11" y="12" class="st0" width="1" height="1"/>
<rect x="11" y="11" class="st0" width="1" height="1"/>
<rect x="11" y="10" class="st0" width="1" height="1"/>
<rect x="10" y="1" class="st0" width="1" height="1"/>
<rect x="11" y="2" class="st0" width="1" height="1"/>
<rect x="9" class="st0" width="1" height="1"/>
<rect x="8" class="st0" width="1" height="1"/>
<rect x="7" y="1" class="st0" width="1" height="1"/>
<rect x="7" y="2" class="st0" width="1" height="1"/>
<rect x="8" y="12" class="st0" width="1" height="1"/>
<rect x="9" y="11" class="st0" width="1" height="1"/>
<rect x="9" y="8" class="st0" width="1" height="3"/>
<rect x="9" y="7" class="st0" width="1" height="1"/>
<rect x="9" y="6" class="st0" width="1" height="1"/>
<rect x="9" y="5" class="st0" width="1" height="1"/>
<rect x="9" y="4" class="st0" width="1" height="1"/>
<rect x="7" y="3" class="st0" width="1" height="9"/>
<rect x="11" y="3" class="st0" width="1" height="7"/>
</svg>
