<?xml version="1.0" encoding="utf-8"?>
<!-- Generator: Adobe Illustrator 25.2.3, SVG Export Plug-In . SVG Version: 6.00 Build 0)  -->
<svg version="1.1" id="Layer_1" xmlns="http://www.w3.org/2000/svg" xmlns:xlink="http://www.w3.org/1999/xlink" x="0px" y="0px"
	 viewBox="0 0 16 16" style="enable-background:new 0 0 16 16;" xml:space="preserve">
<style type="text/css">
	.st0{fill:#FAFAFA;}
</style>
<g>
	<rect x="15" y="14" class="st0" width="1" height="1"/>
	<rect x="0" y="15" class="st0" width="16" height="1"/>
	<rect x="15" y="13" class="st0" width="1" height="1"/>
	<rect x="15" y="12" class="st0" width="1" height="1"/>
	<rect x="15" y="11" class="st0" width="1" height="1"/>
	<rect x="15" y="10" class="st0" width="1" height="1"/>
	<rect x="15" y="9" class="st0" width="1" height="1"/>
	<rect x="14" y="9" class="st0" width="1" height="1"/>
	<rect x="15" y="8" class="st0" width="1" height="1"/>
	<rect x="14" y="7" class="st0" width="2" height="1"/>
	<rect x="13" y="6" class="st0" width="1" height="1"/>
	<rect x="14" y="6" class="st0" width="1" height="1"/>
	<rect x="13" y="5" class="st0" width="1" height="1"/>
	<rect x="12" y="5" class="st0" width="1" height="1"/>
	<rect x="0" y="14" transform="matrix(-1 -4.365587e-11 4.365587e-11 -1 1 29)" class="st0" width="1" height="1"/>
	<rect x="0" y="13" transform="matrix(-1 -4.365587e-11 4.365587e-11 -1 1 27)" class="st0" width="1" height="1"/>
	<rect x="0" y="12" transform="matrix(-1 -4.365587e-11 4.365587e-11 -1 1 25)" class="st0" width="1" height="1"/>
	<rect x="0" y="11" transform="matrix(-1 -4.365587e-11 4.365587e-11 -1 1 23)" class="st0" width="1" height="1"/>
	<rect x="0" y="10" transform="matrix(-1 -4.365587e-11 4.365587e-11 -1 1 21)" class="st0" width="1" height="1"/>
	<rect x="0" y="9" transform="matrix(-1 -4.365587e-11 4.365587e-11 -1 1 19)" class="st0" width="1" height="1"/>
	<rect x="1" y="9" transform="matrix(-1 -3.498213e-12 3.498213e-12 -1 15 19)" class="st0" width="13" height="1"/>
	<rect x="0" y="8" transform="matrix(-1 -4.456536e-11 4.456536e-11 -1 1 17)" class="st0" width="1" height="1"/>
	<rect x="0" y="7" transform="matrix(-1 -4.456536e-11 4.456536e-11 -1 1 15)" class="st0" width="1" height="1"/>
	<rect x="1" y="6" transform="matrix(-1 -8.913061e-11 8.913061e-11 -1 3 14)" class="st0" width="1" height="2"/>
	<rect x="6" y="9" transform="matrix(-1 -1.746231e-10 1.746231e-10 -1 13 22)" class="st0" width="1" height="4"/>
	<rect x="6" y="8" transform="matrix(-1 -4.365587e-11 4.365587e-11 -1 13 17)" class="st0" width="1" height="1"/>
	<rect x="7" y="12" transform="matrix(-1 -4.365587e-11 4.365587e-11 -1 15 25)" class="st0" width="1" height="1"/>
	<rect x="9" y="9" transform="matrix(-1 -1.746231e-10 1.746231e-10 -1 19 22)" class="st0" width="1" height="4"/>
	<rect x="9" y="8" transform="matrix(-1 -4.365587e-11 4.365587e-11 -1 19 17)" class="st0" width="1" height="1"/>
	<rect x="7" y="7" transform="matrix(-1 -4.365587e-11 4.365587e-11 -1 15 15)" class="st0" width="1" height="1"/>
	<rect x="8" y="7" transform="matrix(-1 -4.365587e-11 4.365587e-11 -1 17 15)" class="st0" width="1" height="1"/>
	<rect x="8" y="12" transform="matrix(-1 -4.365587e-11 4.365587e-11 -1 17 25)" class="st0" width="1" height="1"/>
	<rect x="1" y="14" transform="matrix(-1 -4.365587e-11 4.365587e-11 -1 3 29)" class="st0" width="1" height="1"/>
	<rect x="14" y="14" transform="matrix(-1 -4.365587e-11 4.365587e-11 -1 29 29)" class="st0" width="1" height="1"/>
	<rect x="2" y="5" transform="matrix(-1 -8.913061e-11 8.913061e-11 -1 5 12)" class="st0" width="1" height="2"/>
	<rect x="3" y="4" transform="matrix(-1 -4.456536e-11 4.456536e-11 -1 7 9)" class="st0" width="1" height="1"/>
	<rect x="3" y="5" transform="matrix(-1 -4.365587e-11 4.365587e-11 -1 7 11)" class="st0" width="1" height="1"/>
	<rect x="4" y="4" class="st0" width="9" height="1"/>
</g>
</svg>
