<?xml version="1.0" encoding="utf-8"?>
<!-- Generator: Adobe Illustrator 25.2.3, SVG Export Plug-In . SVG Version: 6.00 Build 0)  -->
<svg version="1.1" id="Layer_1" xmlns="http://www.w3.org/2000/svg" xmlns:xlink="http://www.w3.org/1999/xlink" x="0px" y="0px"
	 viewBox="0 0 16 16" style="enable-background:new 0 0 16 16;" xml:space="preserve">
<style type="text/css">
	.st0{fill:#8929BB;}
</style>
<rect x="46" class="st0" width="1" height="1"/>
<rect x="47" class="st0" width="1" height="1"/>
<rect x="39" y="7" class="st0" width="1" height="1"/>
<rect x="39" y="8" class="st0" width="1" height="1"/>
<rect x="3" y="3" class="st0" width="1" height="1"/>
<rect x="4" y="3" transform="matrix(-1 -1.224647e-16 1.224647e-16 -1 9 7)" class="st0" width="1" height="1"/>
<rect x="5" y="2" transform="matrix(-1 -1.224647e-16 1.224647e-16 -1 11 5)" class="st0" width="1" height="1"/>
<rect x="6" y="2" transform="matrix(-1 -1.224647e-16 1.224647e-16 -1 13 5)" class="st0" width="1" height="1"/>
<rect x="7" y="2" transform="matrix(-1 -1.224647e-16 1.224647e-16 -1 15 5)" class="st0" width="1" height="1"/>
<rect x="8" y="3" transform="matrix(-1 -1.224647e-16 1.224647e-16 -1 17 7)" class="st0" width="1" height="1"/>
<rect x="9" y="3" transform="matrix(-1 -1.224647e-16 1.224647e-16 -1 19 7)" class="st0" width="1" height="1"/>
<rect x="10" y="2" transform="matrix(-1 -1.224647e-16 1.224647e-16 -1 21 5)" class="st0" width="1" height="1"/>
<rect x="11" y="2" transform="matrix(-1 -1.224647e-16 1.224647e-16 -1 23 5)" class="st0" width="1" height="1"/>
<rect x="12" y="1" transform="matrix(-1 -1.224647e-16 1.224647e-16 -1 25 3)" class="st0" width="1" height="1"/>
<rect x="13" y="1" transform="matrix(-1 -1.224647e-16 1.224647e-16 -1 27 3)" class="st0" width="1" height="1"/>
<rect x="3" y="11" class="st0" width="1" height="5"/>
<rect x="4" y="11" transform="matrix(-1 -1.224647e-16 1.224647e-16 -1 9 23)" class="st0" width="1" height="1"/>
<rect x="5" y="10" transform="matrix(-1 -1.224647e-16 1.224647e-16 -1 11 21)" class="st0" width="1" height="1"/>
<rect x="6" y="10" transform="matrix(-1 -1.224647e-16 1.224647e-16 -1 13 21)" class="st0" width="1" height="1"/>
<rect x="7" y="10" transform="matrix(-1 -1.224647e-16 1.224647e-16 -1 15 21)" class="st0" width="1" height="1"/>
<rect x="8" y="11" transform="matrix(-1 -1.224647e-16 1.224647e-16 -1 17 23)" class="st0" width="1" height="1"/>
<rect x="9" y="11" transform="matrix(-1 -1.224647e-16 1.224647e-16 -1 19 23)" class="st0" width="1" height="1"/>
<rect x="10" y="10" transform="matrix(-1 -1.224647e-16 1.224647e-16 -1 21 21)" class="st0" width="1" height="1"/>
<rect x="11" y="10" transform="matrix(-1 -1.224647e-16 1.224647e-16 -1 23 21)" class="st0" width="1" height="1"/>
<rect x="12" y="9" transform="matrix(-1 -1.224647e-16 1.224647e-16 -1 25 19)" class="st0" width="1" height="1"/>
<rect x="13" y="9" transform="matrix(-1 -1.224647e-16 1.224647e-16 -1 27 19)" class="st0" width="1" height="1"/>
<rect x="14" y="1" transform="matrix(-1 -1.224647e-16 1.224647e-16 -1 29 3)" class="st0" width="1" height="1"/>
<rect x="14" y="1" transform="matrix(-1 -1.224647e-16 1.224647e-16 -1 29 11)" class="st0" width="1" height="9"/>
<rect x="46" y="15" class="st0" width="1" height="1"/>
<rect x="47" y="15" class="st0" width="1" height="1"/>
<rect x="48" y="15" class="st0" width="1" height="1"/>
<rect x="49" y="14" class="st0" width="1" height="1"/>
<rect x="54" y="8" class="st0" width="1" height="1"/>
<rect x="54" y="7" class="st0" width="1" height="1"/>
<rect x="53" y="5" class="st0" width="1" height="1"/>
<rect x="53" y="6" class="st0" width="1" height="1"/>
<rect x="52" y="4" class="st0" width="1" height="1"/>
<rect x="53" y="10" class="st0" width="1" height="1"/>
<rect x="53" y="9" class="st0" width="1" height="1"/>
<rect x="52" y="3" class="st0" width="1" height="1"/>
<rect x="52" y="11" class="st0" width="1" height="1"/>
<rect x="52" y="12" class="st0" width="1" height="1"/>
<rect x="51" y="13" class="st0" width="1" height="1"/>
<rect x="50" y="14" class="st0" width="1" height="1"/>
<rect x="45" y="14" class="st0" width="1" height="1"/>
<rect x="46" y="5" class="st0" width="1" height="5"/>
<rect x="48" y="7" transform="matrix(-1.836970e-16 1 -1 -1.836970e-16 58 -39)" class="st0" width="1" height="5"/>
<rect x="44" y="14" class="st0" width="1" height="1"/>
<rect x="43" y="13" class="st0" width="1" height="1"/>
<rect x="42" y="13" class="st0" width="1" height="1"/>
<rect x="41" y="12" class="st0" width="1" height="1"/>
<rect x="40" y="11" class="st0" width="1" height="1"/>
<rect x="40" y="9" class="st0" width="1" height="1"/>
<rect x="2" y="3" class="st0" width="1" height="13"/>
<rect x="40" y="5" class="st0" width="1" height="1"/>
<rect x="40" y="4" class="st0" width="1" height="1"/>
<rect x="41" y="3" class="st0" width="1" height="1"/>
<rect x="41" y="2" class="st0" width="1" height="1"/>
<rect x="43" y="1" class="st0" width="1" height="1"/>
<rect x="42" y="2" class="st0" width="1" height="1"/>
<rect x="45" class="st0" width="1" height="1"/>
<rect x="44" y="1" class="st0" width="1" height="1"/>
<rect x="40" y="10" class="st0" width="1" height="1"/>
<rect x="41" y="11" class="st0" width="1" height="1"/>
<rect x="48" class="st0" width="1" height="1"/>
<rect x="49" y="1" class="st0" width="1" height="1"/>
<rect x="51" y="2" class="st0" width="1" height="1"/>
<rect x="50" y="1" class="st0" width="1" height="1"/>
</svg>
