<?xml version="1.0" encoding="utf-8"?>
<!-- Generator: Adobe Illustrator 25.2.3, SVG Export Plug-In . SVG Version: 6.00 Build 0)  -->
<svg version="1.1" id="Layer_1" xmlns="http://www.w3.org/2000/svg" xmlns:xlink="http://www.w3.org/1999/xlink" x="16px" y="16px"
	 viewBox="-10 -8 32 32" style="enable-background:new 0 0 32 32;" xml:space="preserve">
<style type="text/css">
	.st0{fill:#FAFAFA;}
</style>
<path class="st0" d="M5,13c0,0.3,0,0.6,0,1c-0.7,0-1.3,0-2,0c0-0.3,0-0.7,0-1l0,0C3.6,13,4.3,13,5,13L5,13z"/>
<path class="st0" d="M6,3c0-0.7,0-1.3,0-2c0.4,0,0.7,0,1,0l0,0c0,0.7,0,1.3,0,2C6.6,3,6.3,3,6,3L6,3z"/>
<path class="st0" d="M9,0.9c0.3,0,0.7,0,1,0c0,0.7,0,1.4,0,2l0,0C9.7,3,9.4,3,9,3C9,2.3,9,1.6,9,0.9L9,0.9z"/>
<path class="st0" d="M3,3c0-0.3,0-0.6,0-1c0.7,0,1.3,0,2,0c0,0.3,0,0.7,0,1l0,0C4.3,3,3.6,3,3,3L3,3z"/>
<path class="st0" d="M11,3c0-0.3,0-0.6,0-1c0.7,0,1.3,0,2,0c0,0.3,0,0.7,0,1l0,0C12.4,3,11.7,3,11,3L11,3z"/>
<path class="st0" d="M3,5C2.7,5,2.3,5,2,5c0-0.7,0-1.3,0-2c0.3,0,0.7,0,1,0l0,0C3,3.6,3,4.3,3,5L3,5z"/>
<path class="st0" d="M7,15.1c-0.3,0-0.7,0-1,0c0-0.7,0-1.4,0-2l0,0c0.3,0,0.6,0,1,0C7,13.7,7,14.4,7,15.1L7,15.1z"/>
<path class="st0" d="M10,13c0,0.7,0,1.3,0,2c-0.4,0-0.7,0-1,0l0,0c0-0.7,0-1.3,0-2C9.4,13,9.7,13,10,13L10,13z"/>
<path class="st0" d="M13,3c0.3,0,0.6,0,1,0c0,0.7,0,1.3,0,2c-0.3,0-0.7,0-1,0l0,0C13,4.3,13,3.6,13,3L13,3z"/>
<path class="st0" d="M13,13c0,0.3,0,0.6,0,1c-0.7,0-1.3,0-2,0c0-0.3,0-0.7,0-1l0,0C11.7,13,12.4,13,13,13L13,13z"/>
<path class="st0" d="M0.9,7c0-0.3,0-0.7,0-1c0.7,0,1.4,0,2,0l0,0c0,0.3,0,0.6,0,1C2.3,7,1.6,7,0.9,7L0.9,7z"/>
<path class="st0" d="M13,6c0.7,0,1.3,0,2,0c0,0.4,0,0.7,0,1l0,0c-0.7,0-1.3,0-2,0C13,6.6,13,6.3,13,6L13,6z"/>
<path class="st0" d="M3,10c-0.7,0-1.3,0-2,0c0-0.4,0-0.7,0-1l0,0c0.7,0,1.3,0,2,0C3,9.4,3,9.7,3,10L3,10z"/>
<path class="st0" d="M15.1,9c0,0.3,0,0.7,0,1c-0.7,0-1.4,0-2,0l0,0c0-0.3,0-0.6,0-1C13.7,9,14.4,9,15.1,9L15.1,9z"/>
<path class="st0" d="M3,13c-0.3,0-0.6,0-1,0c0-0.7,0-1.3,0-2c0.3,0,0.7,0,1,0l0,0C3,11.7,3,12.4,3,13L3,13z"/>
<path class="st0" d="M13,11c0.3,0,0.6,0,1,0c0,0.7,0,1.3,0,2c-0.3,0-0.7,0-1,0l0,0C13,12.4,13,11.7,13,11L13,11z"/>
<path class="st0" d="M7,0.9C7,0.6,7,0.3,7,0c0.7,0,1.3,0,2,0c0,0.3,0,0.6,0,0.9l0,0C8.3,0.9,7.7,0.9,7,0.9L7,0.9z"/>
<path class="st0" d="M0.9,9C0.6,9,0.3,9,0,9c0-0.7,0-1.3,0-2c0.3,0,0.6,0,0.9,0l0,0C0.9,7.7,0.9,8.3,0.9,9L0.9,9z"/>
<path class="st0" d="M15.1,7c0.3,0,0.6,0,0.9,0c0,0.7,0,1.3,0,2c-0.3,0-0.6,0-0.9,0l0,0C15.1,8.3,15.1,7.7,15.1,7L15.1,7z"/>
<path class="st0" d="M9,15.1c0,0.3,0,0.6,0,0.9c-0.7,0-1.3,0-2,0c0-0.3,0-0.6,0-0.9l0,0C7.7,15.1,8.3,15.1,9,15.1L9,15.1z"/>
<path class="st0" d="M5,3c0.3,0,0.7,0,1,0l0,0c0,0.3,0,0.7,0,1C5.6,4,5.3,4,5,4C5,3.6,5,3.3,5,3L5,3z"/>
<path class="st0" d="M10,3c0.3,0,0.7,0,1,0l0,0c0,0.3,0,0.7,0,1c-0.3,0-0.7,0-1,0C10,3.6,10,3.3,10,3L10,3z"/>
<path class="st0" d="M3,6c0-0.3,0-0.7,0-1l0,0c0.3,0,0.7,0,1,0c0,0.3,0,0.7,0,1C3.6,6,3.3,6,3,6L3,6z"/>
<path class="st0" d="M6,13c-0.3,0-0.7,0-1,0l0,0c0-0.3,0-0.7,0-1c0.3,0,0.7,0,1,0C6,12.4,6,12.7,6,13L6,13z"/>
<path class="st0" d="M11,13c-0.3,0-0.7,0-1,0l0,0c0-0.3,0-0.7,0-1c0.4,0,0.7,0,1,0C11,12.4,11,12.7,11,13L11,13z"/>
<path class="st0" d="M3,11c0-0.3,0-0.7,0-1l0,0c0.3,0,0.7,0,1,0c0,0.4,0,0.7,0,1C3.6,11,3.3,11,3,11L3,11z"/>
<path class="st0" d="M13,5c0,0.3,0,0.7,0,1l0,0c-0.3,0-0.7,0-1,0c0-0.4,0-0.7,0-1C12.4,5,12.7,5,13,5L13,5z"/>
<path class="st0" d="M13,10c0,0.3,0,0.7,0,1l0,0c-0.3,0-0.7,0-1,0c0-0.3,0-0.7,0-1C12.4,10,12.7,10,13,10L13,10z"/>
<path class="st0" d="M6,6c0.4,0,0.7,0,1,0c0-0.3,0-0.6,0-1c0.7,0,1.3,0,2,0c0,0.3,0,0.6,0,1c0.3,0,0.6,0,1,0c0,0.3,0,0.6,0,1
	c0.4,0,0.7,0,1,0.1c0,0.6,0,1.3,0,2c-0.3,0-0.6,0-1,0c0,0.4,0,0.7,0,1c-0.3,0-0.6,0-1,0c0,0.3,0,0.7,0,1c-0.7,0-1.3,0-2,0
	c0-0.3,0-0.6,0-1c-0.3,0-0.6,0-1,0c0-0.3,0-0.6,0-1C5.7,9,5.4,9,5,9c0-0.7,0-1.3,0-2c0.3,0,0.6,0,1,0C6,6.7,6,6.4,6,6z M6,7
	c0,0.7,0,1.3,0,2c0.3,0,0.6,0,1,0c0,0.3,0,0.6,0,1c0.7,0,1.3,0,2,0c0-0.3,0-0.6,0-1c0.3,0,0.6,0,1,0c0-0.7,0-1.3,0-2
	C9.6,7,9.3,7,9,7c0-0.3,0-0.6,0-1C8.3,6,7.7,6,7,6c0,0.3,0,0.6,0,1C6.7,7,6.4,7,6,7z"/>
</svg>
