<?xml version="1.0" encoding="utf-8"?>
<!-- Generator: Adobe Illustrator 25.2.3, SVG Export Plug-In . SVG Version: 6.00 Build 0)  -->
<svg version="1.1" id="Layer_1" xmlns="http://www.w3.org/2000/svg" xmlns:xlink="http://www.w3.org/1999/xlink" x="0px" y="0px"
	 viewBox="0 0 16 16" style="enable-background:new 0 0 16 16;" xml:space="preserve">
<style type="text/css">
	.st0{fill:#FAFAFA;}
</style>
<g>
	<rect x="4.7" class="st0" width="6.5" height="0.9"/>
	<rect x="3.8" y="0.9" class="st0" width="0.9" height="1.9"/>
	<rect x="4.7" y="2.8" class="st0" width="0.9" height="0.9"/>
	<rect x="2.9" y="5.6" class="st0" width="0.9" height="0.9"/>
	<rect x="1.9" y="6.5" class="st0" width="0.9" height="0.9"/>
	<rect x="1.9" y="13.1" class="st0" width="0.9" height="0.9"/>
	<rect x="2.9" y="14" class="st0" width="1.9" height="0.9"/>
	<rect x="11.3" y="14" class="st0" width="1.9" height="0.9"/>
	<rect x="13.1" y="13.1" class="st0" width="0.9" height="0.9"/>
	<rect x="14.1" y="7.5" class="st0" width="0.9" height="5.6"/>
	<rect x="4.7" y="14.9" class="st0" width="6.5" height="0.9"/>
	<rect x="1" y="7.5" class="st0" width="0.9" height="5.6"/>
	<rect x="5.7" y="0.9" class="st0" width="0.9" height="0.9"/>
	<rect x="8.5" y="0.9" class="st0" width="0.9" height="0.9"/>
	<rect x="11.3" y="0.9" class="st0" width="0.9" height="0.9"/>
	<rect x="11.3" y="1.9" class="st0" width="0.9" height="0.9"/>
	<rect x="10.3" y="2.8" class="st0" width="0.9" height="0.9"/>
	<rect x="12.2" y="5.6" class="st0" width="0.9" height="0.9"/>
	<rect x="7.5" y="6.5" class="st0" width="0.9" height="7.5"/>
	<rect x="5.7" y="8.4" class="st0" width="0.9" height="0.9"/>
	<rect x="8.5" y="10.3" class="st0" width="0.9" height="0.9"/>
	<rect x="9.4" y="11.2" class="st0" width="0.9" height="0.9"/>
	<rect x="6.6" y="9.3" class="st0" width="0.9" height="0.9"/>
	<rect x="6.6" y="7.5" class="st0" width="3.7" height="0.9"/>
	<rect x="5.7" y="12.1" class="st0" width="3.7" height="0.9"/>
	<rect x="13.1" y="6.5" class="st0" width="0.9" height="0.9"/>
	<rect x="10.3" y="4.7" class="st0" width="1.9" height="0.9"/>
	<rect x="3.8" y="4.7" class="st0" width="1.9" height="0.9"/>
	<rect x="5.7" y="3.7" class="st0" width="4.7" height="0.9"/>
</g>
</svg>
