<?xml version="1.0" encoding="utf-8"?>
<!-- Generator: Adobe Illustrator 25.2.3, SVG Export Plug-In . SVG Version: 6.00 Build 0)  -->
<svg version="1.1" id="Layer_1" xmlns="http://www.w3.org/2000/svg" xmlns:xlink="http://www.w3.org/1999/xlink" x="0px" y="0px"
	 viewBox="0 0 16 16" style="enable-background:new 0 0 16 16;" xml:space="preserve">
<style type="text/css">
	.st0{fill:#8929BB;}
</style>
<rect x="7" class="st0" width="1" height="1"/>
<rect x="8" class="st0" width="1" height="1"/>
<rect y="7" class="st0" width="1" height="1"/>
<rect y="8" class="st0" width="1" height="1"/>
<rect x="7" y="15" class="st0" width="1" height="1"/>
<rect x="8" y="15" class="st0" width="1" height="1"/>
<rect x="9" y="15" class="st0" width="1" height="1"/>
<rect x="10" y="14" class="st0" width="1" height="1"/>
<rect x="15" y="8" class="st0" width="1" height="1"/>
<rect x="15" y="7" class="st0" width="1" height="1"/>
<rect x="14" y="5" class="st0" width="1" height="1"/>
<rect x="14" y="6" class="st0" width="1" height="1"/>
<rect x="13" y="4" class="st0" width="1" height="1"/>
<rect x="14" y="10" class="st0" width="1" height="1"/>
<rect x="14" y="9" class="st0" width="1" height="1"/>
<rect x="13" y="3" class="st0" width="1" height="1"/>
<rect x="13" y="11" class="st0" width="1" height="1"/>
<rect x="13" y="12" class="st0" width="1" height="1"/>
<rect x="12" y="13" class="st0" width="1" height="1"/>
<rect x="11" y="14" class="st0" width="1" height="1"/>
<rect x="6" y="14" class="st0" width="1" height="1"/>
<rect x="7" y="5" class="st0" width="1" height="5"/>
<rect x="9" y="7" transform="matrix(-1.836970e-16 1 -1 -1.836970e-16 19 1.776357e-15)" class="st0" width="1" height="5"/>
<rect x="5" y="14" class="st0" width="1" height="1"/>
<rect x="4" y="13" class="st0" width="1" height="1"/>
<rect x="3" y="13" class="st0" width="1" height="1"/>
<rect x="2" y="12" class="st0" width="1" height="1"/>
<rect x="1" y="11" class="st0" width="1" height="1"/>
<rect x="1" y="9" class="st0" width="1" height="1"/>
<rect y="6" class="st0" width="1" height="1"/>
<rect x="1" y="5" class="st0" width="1" height="1"/>
<rect x="1" y="4" class="st0" width="1" height="1"/>
<rect x="2" y="3" class="st0" width="1" height="1"/>
<rect x="2" y="2" class="st0" width="1" height="1"/>
<rect x="4" y="1" class="st0" width="1" height="1"/>
<rect x="3" y="2" class="st0" width="1" height="1"/>
<rect x="6" class="st0" width="1" height="1"/>
<rect x="5" y="1" class="st0" width="1" height="1"/>
<rect x="1" y="10" class="st0" width="1" height="1"/>
<rect x="2" y="11" class="st0" width="1" height="1"/>
<rect x="9" class="st0" width="1" height="1"/>
<rect x="10" y="1" class="st0" width="1" height="1"/>
<rect x="12" y="2" class="st0" width="1" height="1"/>
<rect x="11" y="1" class="st0" width="1" height="1"/>
</svg>
