<?xml version="1.0" encoding="utf-8"?>
<!-- Generator: Adobe Illustrator 25.2.3, SVG Export Plug-In . SVG Version: 6.00 Build 0)  -->
<svg version="1.1" id="Layer_1" xmlns="http://www.w3.org/2000/svg" xmlns:xlink="http://www.w3.org/1999/xlink" x="0px" y="0px"
	 viewBox="0 0 16 16" style="enable-background:new 0 0 16 16;" xml:space="preserve">
<style type="text/css">
	.st0{fill:#FFFFFF;}
	.st1{fill:#454FB5;}
</style>
<rect x="0.7" y="7.1" class="st0" width="0.9" height="8"/>
<rect x="0.7" y="0.9" class="st0" width="0.9" height="4.6"/>
<rect x="3.6" y="-2.1" transform="matrix(-1.836970e-16 1 -1 -1.836970e-16 5.4585 -2.7511)" class="st0" width="0.9" height="6.9"/>
<rect x="3.6" y="2.2" transform="matrix(-1.836970e-16 1 -1 -1.836970e-16 9.7572 1.5476)" class="st0" width="0.9" height="6.9"/>
<rect x="3.6" y="4.1" transform="matrix(-1.836970e-16 1 -1 -1.836970e-16 11.6284 3.4188)" class="st0" width="0.9" height="6.9"/>
<rect x="3.6" y="11.2" transform="matrix(-1.836970e-16 1 -1 -1.836970e-16 18.7372 10.5276)" class="st0" width="0.9" height="6.9"/>
<rect x="6.5" y="7.1" transform="matrix(-1 -1.665197e-07 1.665197e-07 -1 14.0554 22.1369)" class="st0" width="1" height="8"/>
<rect x="6.5" y="0.9" transform="matrix(-1 -9.554738e-08 9.554738e-08 -1 14.0554 6.4116)" class="st0" width="1" height="4.6"/>
<rect x="8.5" y="7.1" class="st0" width="0.9" height="8"/>
<rect x="8.5" y="0.9" class="st0" width="0.9" height="4.6"/>
<rect x="11.4" y="-2.1" transform="matrix(-1.836970e-16 1 -1 -1.836970e-16 13.2282 -10.5622)" class="st0" width="0.9" height="6.9"/>
<rect x="11.4" y="2.2" transform="matrix(-1.836970e-16 1 -1 -1.836970e-16 17.5422 -6.2483)" class="st0" width="0.9" height="6.9"/>
<rect x="11.4" y="4.1" transform="matrix(-1.836970e-16 1 -1 -1.836970e-16 19.4134 -4.377)" class="st0" width="0.9" height="6.9"/>
<rect x="11.4" y="11.2" transform="matrix(-1.836970e-16 1 -1 -1.836970e-16 26.5222 2.7318)" class="st0" width="0.9" height="6.9"/>
<rect x="14.3" y="7.1" transform="matrix(-1 -1.665197e-07 1.665197e-07 -1 29.6362 22.126)" class="st0" width="1" height="8"/>
<rect x="14.3" y="0.9" transform="matrix(-1 -9.554738e-08 9.554738e-08 -1 29.6362 6.4007)" class="st0" width="1" height="4.6"/>
<rect x="8" y="13.6" transform="matrix(-1.961547e-08 -1 1 -1.961547e-08 -12.2383 29.1596)" class="st1" width="0.9" height="14.2"/>
<rect x="15.5" y="15.1" transform="matrix(-1.961348e-08 -1 1 -1.961348e-08 -6.167 38.167)" class="st1" width="0.9" height="14.2"/>
</svg>
