<?xml version="1.0" encoding="utf-8"?>
<!-- Generator: Adobe Illustrator 25.0.1, SVG Export Plug-In . SVG Version: 6.00 Build 0)  -->
<svg version="1.1" id="Layer_1" xmlns="http://www.w3.org/2000/svg" xmlns:xlink="http://www.w3.org/1999/xlink" x="0px" y="0px"
	 viewBox="-7 -5 28 28" style="enable-background:new 0 0 16 16;" xml:space="preserve">
<style type="text/css">
	.st0{fill:#FAFAFA;}
</style>
<path class="st0" d="M5.7,15.3c0,0.2,0,0.4,0,0.7c-0.3,0-0.5,0-0.7,0c0-0.2,0-0.5,0-0.7l0,0C5.2,15.3,5.5,15.3,5.7,15.3L5.7,15.3z"
	/>
<path class="st0" d="M5.7,14.6c0,0.2,0,0.4,0,0.7c-0.3,0-0.5,0-0.7,0c0-0.2,0-0.5,0-0.7l0,0C5.2,14.6,5.5,14.6,5.7,14.6L5.7,14.6z"
	/>
<path class="st0" d="M5.7,13.9c0,0.2,0,0.4,0,0.7c-0.3,0-0.5,0-0.7,0c0-0.2,0-0.5,0-0.7l0,0C5.2,13.9,5.5,13.9,5.7,13.9L5.7,13.9z"
	/>
<path class="st0" d="M5.7,13.2c0,0.2,0,0.4,0,0.7c-0.3,0-0.5,0-0.7,0c0-0.2,0-0.5,0-0.7l0,0C5.2,13.2,5.5,13.2,5.7,13.2L5.7,13.2z"
	/>
<path class="st0" d="M5,12.4c0,0.2,0,0.4,0,0.7c-0.3,0-0.5,0-0.7,0c0-0.2,0-0.5,0-0.7l0,0C4.5,12.4,4.8,12.4,5,12.4L5,12.4z"/>
<path class="st0" d="M8.3,8.5c0,0.2,0,0.4,0,0.6c-0.2,0-0.4,0-0.7,0c0-0.2,0-0.5,0-0.6l0,0C7.9,8.5,8.1,8.5,8.3,8.5L8.3,8.5z"/>
<path class="st0" d="M8.3,9.1c0,0.2,0,0.4,0,0.6c-0.2,0-0.4,0-0.7,0c0-0.2,0-0.5,0-0.6l0,0C7.9,9.1,8.1,9.1,8.3,9.1L8.3,9.1z"/>
<path class="st0" d="M8.3,9.8c0,0.2,0,0.4,0,0.6c-0.2,0-0.4,0-0.7,0c0-0.2,0-0.5,0-0.6l0,0C7.9,9.8,8.1,9.8,8.3,9.8L8.3,9.8z"/>
<path class="st0" d="M7.7,10.4c0,0.2,0,0.4,0,0.6c-0.2,0-0.4,0-0.7,0c0-0.2,0-0.5,0-0.6l0,0C7.2,10.4,7.4,10.4,7.7,10.4L7.7,10.4z"
	/>
<path class="st0" d="M9,10.4c0,0.2,0,0.4,0,0.6c-0.2,0-0.4,0-0.7,0c0-0.2,0-0.5,0-0.6l0,0C8.5,10.4,8.8,10.4,9,10.4L9,10.4z"/>
<path class="st0" d="M9.6,11.1c0,0.2,0,0.4,0,0.6c-0.2,0-0.4,0-0.7,0c0-0.2,0-0.5,0-0.6l0,0C9.2,11.1,9.4,11.1,9.6,11.1L9.6,11.1z"
	/>
<path class="st0" d="M10.3,11.7c0,0.2,0,0.4,0,0.6c-0.2,0-0.4,0-0.7,0c0-0.2,0-0.5,0-0.6l0,0C9.8,11.7,10.1,11.7,10.3,11.7
	L10.3,11.7z"/>
<path class="st0" d="M7,11.1c0,0.2,0,0.4,0,0.6c-0.2,0-0.4,0-0.7,0c0-0.2,0-0.5,0-0.6l0,0C6.6,11.1,6.8,11.1,7,11.1L7,11.1z"/>
<path class="st0" d="M6.4,11.7c0,0.2,0,0.4,0,0.6c-0.2,0-0.4,0-0.7,0c0-0.2,0-0.5,0-0.6l0,0C5.9,11.7,6.1,11.7,6.4,11.7L6.4,11.7z"
	/>
<path class="st0" d="M4.3,11.7c0,0.2,0,0.4,0,0.7c-0.3,0-0.5,0-0.7,0c0-0.2,0-0.5,0-0.7l0,0C3.8,11.7,4.1,11.7,4.3,11.7L4.3,11.7z"
	/>
<path class="st0" d="M3.6,11.7c0,0.2,0,0.4,0,0.7c-0.3,0-0.5,0-0.7,0c0-0.2,0-0.5,0-0.7l0,0C3.1,11.7,3.3,11.7,3.6,11.7L3.6,11.7z"
	/>
<path class="st0" d="M3.6,10.3c0,0.2,0,0.4,0,0.7c-0.5,0-0.9,0-1.4,0c0-0.2,0-0.5,0-0.7l0,0C2.6,10.3,3.1,10.3,3.6,10.3L3.6,10.3z"
	/>
<path class="st0" d="M2.2,9.6c0,0.2,0,0.4,0,0.7c-0.3,0-0.5,0-0.7,0c0-0.2,0-0.5,0-0.7l0,0C1.6,9.6,1.9,9.6,2.2,9.6L2.2,9.6z"/>
<path class="st0" d="M2.2,8.9c0,0.2,0,0.4,0,0.7c-0.3,0-0.5,0-0.7,0c0-0.2,0-0.5,0-0.7l0,0C1.6,8.9,1.9,8.9,2.2,8.9L2.2,8.9z"/>
<path class="st0" d="M4.3,8.9c0,0.4,0,0.9,0,1.4c-0.3,0-0.5,0-0.7,0c0-0.4,0-1,0-1.4l0,0C3.8,8.9,4.1,8.9,4.3,8.9L4.3,8.9z"/>
<path class="st0" d="M3.6,8.2c0,0.2,0,0.4,0,0.7c-0.5,0-0.9,0-1.4,0c0-0.2,0-0.5,0-0.7l0,0C2.6,8.2,3.1,8.2,3.6,8.2L3.6,8.2z"/>
<path class="st0" d="M2.9,11.7c0,0.2,0,0.4,0,0.7c-0.3,0-0.5,0-0.7,0c0-0.2,0-0.5,0-0.7l0,0C2.4,11.7,2.6,11.7,2.9,11.7L2.9,11.7z"
	/>
<path class="st0" d="M2.2,11.7c0,0.2,0,0.4,0,0.7c-0.3,0-0.5,0-0.7,0c0-0.2,0-0.5,0-0.7l0,0C1.6,11.7,1.9,11.7,2.2,11.7L2.2,11.7z"
	/>
<path class="st0" d="M1.4,12.4c0,0.2,0,0.4,0,0.7c-0.3,0-0.5,0-0.7,0c0-0.2,0-0.5,0-0.7l0,0C0.9,12.4,1.2,12.4,1.4,12.4L1.4,12.4z"
	/>
<path class="st0" d="M0.7,13.2c0,0.6,0,1.3,0,2.1c-0.3,0-0.5,0-0.7,0c0-0.6,0-1.5,0-2.1l0,0C0.2,13.2,0.5,13.2,0.7,13.2L0.7,13.2z"
	/>
<path class="st0" d="M5.4,15.3c0,0.2,0,0.4,0,0.7c-1.9,0-3.5,0-5.4,0c0-0.2,0-0.5,0-0.7l0,0C1.6,15.3,3.5,15.3,5.4,15.3L5.4,15.3z"
	/>
<path class="st0" d="M10.9,7.1c0,0.2,0,0.4,0,0.7c-0.3,0-0.5,0-0.7,0c0-0.2,0-0.5,0-0.7l0,0C10.4,7.1,10.6,7.1,10.9,7.1L10.9,7.1z"
	/>
<path class="st0" d="M10.9,6.4c0,0.2,0,0.4,0,0.7c-0.3,0-0.5,0-0.7,0c0-0.2,0-0.5,0-0.7l0,0C10.4,6.4,10.6,6.4,10.9,6.4L10.9,6.4z"
	/>
<path class="st0" d="M10.9,5.7c0,0.2,0,0.4,0,0.7c-0.3,0-0.5,0-0.7,0c0-0.2,0-0.5,0-0.7l0,0C10.4,5.7,10.6,5.7,10.9,5.7L10.9,5.7z"
	/>
<path class="st0" d="M10.9,5c0,0.2,0,0.4,0,0.7c-0.3,0-0.5,0-0.7,0c0-0.2,0-0.5,0-0.7l0,0C10.4,5,10.6,5,10.9,5L10.9,5z"/>
<path class="st0" d="M10.2,4.3c0,0.2,0,0.4,0,0.7C9.9,5,9.7,5,9.4,5c0-0.2,0-0.5,0-0.7l0,0C9.7,4.3,9.9,4.3,10.2,4.3L10.2,4.3z"/>
<path class="st0" d="M9.4,3.6c0,0.2,0,0.4,0,0.7c-0.3,0-0.5,0-0.7,0c0-0.2,0-0.5,0-0.7l0,0C8.9,3.6,9.2,3.6,9.4,3.6L9.4,3.6z"/>
<path class="st0" d="M8.7,3.6c0,0.2,0,0.4,0,0.7c-0.3,0-0.5,0-0.7,0c0-0.2,0-0.5,0-0.7l0,0C8.2,3.6,8.5,3.6,8.7,3.6L8.7,3.6z"/>
<path class="st0" d="M8.7,2.1c0,0.2,0,0.4,0,0.7c-0.5,0-0.9,0-1.4,0c0-0.2,0-0.5,0-0.7l0,0C7.7,2.1,8.2,2.1,8.7,2.1L8.7,2.1z"/>
<path class="st0" d="M7.3,1.4c0,0.2,0,0.4,0,0.7c-0.3,0-0.5,0-0.7,0c0-0.2,0-0.5,0-0.7l0,0C6.8,1.4,7,1.4,7.3,1.4L7.3,1.4z"/>
<path class="st0" d="M7.3,0.7c0,0.2,0,0.4,0,0.7c-0.3,0-0.5,0-0.7,0c0-0.2,0-0.5,0-0.7l0,0C6.8,0.7,7,0.7,7.3,0.7L7.3,0.7z"/>
<path class="st0" d="M9.4,0.7c0,0.4,0,0.9,0,1.4c-0.3,0-0.5,0-0.7,0c0-0.4,0-1,0-1.4l0,0C8.9,0.7,9.2,0.7,9.4,0.7L9.4,0.7z"/>
<path class="st0" d="M8.7,0c0,0.2,0,0.4,0,0.7c-0.5,0-0.9,0-1.4,0c0-0.2,0-0.5,0-0.7l0,0C7.7,0,8.2,0,8.7,0L8.7,0z"/>
<path class="st0" d="M8,3.6C8,3.8,8,4,8,4.3c-0.3,0-0.5,0-0.7,0c0-0.2,0-0.5,0-0.7l0,0C7.5,3.6,7.8,3.6,8,3.6L8,3.6z"/>
<path class="st0" d="M7.3,3.6c0,0.2,0,0.4,0,0.7c-0.3,0-0.5,0-0.7,0c0-0.2,0-0.5,0-0.7l0,0C6.8,3.6,7,3.6,7.3,3.6L7.3,3.6z"/>
<path class="st0" d="M6.6,4.3c0,0.2,0,0.4,0,0.7C6.3,5,6.1,5,5.9,5c0-0.2,0-0.5,0-0.7l0,0C6.1,4.3,6.3,4.3,6.6,4.3L6.6,4.3z"/>
<path class="st0" d="M5.9,5c0,0.6,0,1.3,0,2.1c-0.3,0-0.5,0-0.7,0c0-0.6,0-1.5,0-2.1l0,0C5.4,5,5.6,5,5.9,5L5.9,5z"/>
<path class="st0" d="M10.5,7.1c0,0.2,0,0.4,0,0.7c-1.9,0-3.5,0-5.4,0c0-0.2,0-0.5,0-0.7l0,0C6.8,7.1,8.6,7.1,10.5,7.1L10.5,7.1z"/>
<path class="st0" d="M16,15.3c0,0.2,0,0.4,0,0.7c-0.3,0-0.5,0-0.7,0c0-0.2,0-0.5,0-0.7l0,0C15.5,15.3,15.7,15.3,16,15.3L16,15.3z"/>
<path class="st0" d="M16,14.6c0,0.2,0,0.4,0,0.7c-0.3,0-0.5,0-0.7,0c0-0.2,0-0.5,0-0.7l0,0C15.5,14.6,15.7,14.6,16,14.6L16,14.6z"/>
<path class="st0" d="M16,13.9c0,0.2,0,0.4,0,0.7c-0.3,0-0.5,0-0.7,0c0-0.2,0-0.5,0-0.7l0,0C15.5,13.9,15.7,13.9,16,13.9L16,13.9z"/>
<path class="st0" d="M16,13.2c0,0.2,0,0.4,0,0.7c-0.3,0-0.5,0-0.7,0c0-0.2,0-0.5,0-0.7l0,0C15.5,13.2,15.7,13.2,16,13.2L16,13.2z"/>
<path class="st0" d="M15.3,12.4c0,0.2,0,0.4,0,0.7c-0.3,0-0.5,0-0.7,0c0-0.2,0-0.5,0-0.7l0,0C14.8,12.4,15,12.4,15.3,12.4L15.3,12.4
	z"/>
<path class="st0" d="M14.6,11.7c0,0.2,0,0.4,0,0.7c-0.3,0-0.5,0-0.7,0c0-0.2,0-0.5,0-0.7l0,0C14.1,11.7,14.3,11.7,14.6,11.7
	L14.6,11.7z"/>
<path class="st0" d="M13.9,11.7c0,0.2,0,0.4,0,0.7c-0.3,0-0.5,0-0.7,0c0-0.2,0-0.5,0-0.7l0,0C13.4,11.7,13.6,11.7,13.9,11.7
	L13.9,11.7z"/>
<path class="st0" d="M13.9,10.3c0,0.2,0,0.4,0,0.7c-0.5,0-0.9,0-1.4,0c0-0.2,0-0.5,0-0.7l0,0C12.9,10.3,13.4,10.3,13.9,10.3
	L13.9,10.3z"/>
<path class="st0" d="M12.4,9.6c0,0.2,0,0.4,0,0.7c-0.3,0-0.5,0-0.7,0c0-0.2,0-0.5,0-0.7l0,0C11.9,9.6,12.2,9.6,12.4,9.6L12.4,9.6z"
	/>
<path class="st0" d="M12.4,8.9c0,0.2,0,0.4,0,0.7c-0.3,0-0.5,0-0.7,0c0-0.2,0-0.5,0-0.7l0,0C11.9,8.9,12.2,8.9,12.4,8.9L12.4,8.9z"
	/>
<path class="st0" d="M14.6,8.9c0,0.4,0,0.9,0,1.4c-0.3,0-0.5,0-0.7,0c0-0.4,0-1,0-1.4l0,0C14.1,8.9,14.3,8.9,14.6,8.9L14.6,8.9z"/>
<path class="st0" d="M13.9,8.2c0,0.2,0,0.4,0,0.7c-0.5,0-0.9,0-1.4,0c0-0.2,0-0.5,0-0.7l0,0C12.9,8.2,13.4,8.2,13.9,8.2L13.9,8.2z"
	/>
<path class="st0" d="M13.1,11.7c0,0.2,0,0.4,0,0.7c-0.3,0-0.5,0-0.7,0c0-0.2,0-0.5,0-0.7l0,0C12.6,11.7,12.9,11.7,13.1,11.7
	L13.1,11.7z"/>
<path class="st0" d="M12.4,11.7c0,0.2,0,0.4,0,0.7c-0.3,0-0.5,0-0.7,0c0-0.2,0-0.5,0-0.7l0,0C11.9,11.7,12.2,11.7,12.4,11.7
	L12.4,11.7z"/>
<path class="st0" d="M11.7,12.4c0,0.2,0,0.4,0,0.7c-0.3,0-0.5,0-0.7,0c0-0.2,0-0.5,0-0.7l0,0C11.2,12.4,11.5,12.4,11.7,12.4
	L11.7,12.4z"/>
<path class="st0" d="M11,13.2c0,0.6,0,1.3,0,2.1c-0.3,0-0.5,0-0.7,0c0-0.6,0-1.5,0-2.1l0,0C10.5,13.2,10.7,13.2,11,13.2L11,13.2z"/>
<path class="st0" d="M15.6,15.3c0,0.2,0,0.4,0,0.7c-1.9,0-3.5,0-5.4,0c0-0.2,0-0.5,0-0.7l0,0C11.9,15.3,13.8,15.3,15.6,15.3
	L15.6,15.3z"/>
</svg>
